<svg width="14" height="14" viewBox="0 0 14 14" fill="none" xmlns="http://www.w3.org/2000/svg">
<circle cx="7" cy="7" r="7" fill="white"/>
<path fill-rule="evenodd" clip-rule="evenodd" d="M6.37059 0.0174326C3.9345 0.25195 1.79831 1.71931 0.73244 3.89025C0.293248 4.78476 0.0873761 5.54914 0.0153223 6.55272C-0.0505742 7.47034 0.0983498 8.52148 0.418282 9.39707C0.56581 9.80081 0.921701 10.5023 1.1594 10.8579C1.67792 11.6336 2.35087 12.3096 3.11728 12.8247C4.5363 13.7784 6.32062 14.1787 8.02621 13.9259C9.99829 13.6336 11.7327 12.5212 12.8629 10.8239C13.0818 10.4952 13.4411 9.78203 13.5817 9.39707C13.9017 8.52148 14.0506 7.47034 13.9847 6.55272C13.9472 6.03118 13.8975 5.72132 13.7719 5.22784C13.6488 4.74424 13.5236 4.41297 13.2664 3.89025C12.9004 3.14645 12.4656 2.5526 11.8532 1.96012C11.2826 1.40816 10.7953 1.06594 10.0786 0.71392C9.39524 0.378215 8.7641 0.179727 8.02621 0.0684098C7.61231 0.00598879 6.76167 -0.0202116 6.37059 0.0174326ZM4.48578 3.20939C4.56188 3.22366 4.79129 3.43917 5.78907 4.43386L7 5.64102L8.21093 4.43249C9.3804 3.26533 9.42608 3.22336 9.54501 3.20603C9.61594 3.1957 9.70296 3.20112 9.75025 3.21881C9.86877 3.26316 10.7419 4.14127 10.7788 4.25333C10.7955 4.30376 10.8002 4.39386 10.7897 4.45891C10.7721 4.56719 10.6927 4.65315 9.56345 5.78615L8.356 6.99761L9.56345 8.20907C10.6927 9.34207 10.7721 9.42803 10.7897 9.53631C10.8002 9.60136 10.7955 9.69146 10.7788 9.74189C10.7419 9.85395 9.86877 10.7321 9.75025 10.7764C9.70296 10.7941 9.61594 10.7995 9.54501 10.7892C9.42608 10.7719 9.3804 10.7299 8.21093 9.56273L7 8.3542L5.78907 9.56273C4.6196 10.7299 4.57392 10.7719 4.45499 10.7892C4.38406 10.7995 4.29704 10.7941 4.24975 10.7764C4.13123 10.7321 3.25813 9.85395 3.22118 9.74189C3.20455 9.69146 3.19978 9.60136 3.21035 9.53631C3.22792 9.42803 3.3073 9.34207 4.43655 8.20907L5.644 6.99761L4.43655 5.78615C3.3073 4.65315 3.22792 4.56719 3.21035 4.45891C3.17775 4.25812 3.22034 4.19392 3.70922 3.70635C4.22914 3.18785 4.26116 3.16737 4.48578 3.20939Z" fill="#BD1E2D"/>
</svg>
