<svg width="40" height="44" viewBox="0 0 40 44" fill="none" xmlns="http://www.w3.org/2000/svg">
<path fill-rule="evenodd" clip-rule="evenodd" d="M5.21594 0.975086C3.83016 1.64841 2.87107 2.83682 2.33688 4.54258C2.11035 5.26592 2.10102 5.3676 2.10179 7.10269C2.10299 9.79298 2.38412 11.2051 3.05943 11.914C3.47141 12.3464 3.54997 12.2876 4.92215 10.5201C5.98496 9.15092 6.22245 8.7903 6.43015 8.23001C7.01294 6.65795 8.06711 4.84261 9.18341 3.48897C9.46925 3.14231 10.1365 2.44058 10.6661 1.92953L11.6289 1.00047L9.34242 0.850875C8.08483 0.768599 6.80558 0.683383 6.49964 0.661532C5.97948 0.624303 5.89622 0.64464 5.21594 0.975086ZM14.9292 0.707754C14.3405 0.765742 14.4137 0.729016 13.3485 1.5005C12.4173 2.17492 11.0668 3.43115 10.3513 4.28836C9.228 5.63443 8.15098 7.53079 7.60764 9.11965C7.34978 9.87332 7.33156 10.0096 7.28081 11.5541L7.22706 13.1901L4.11907 14.5474C2.40971 15.2938 0.978218 15.9379 0.937995 15.9787C0.766836 16.1526 0.256782 17.2703 0.131579 17.7459C-0.0747529 18.5294 -0.0408635 19.2961 0.250535 20.4351C0.715317 22.2518 1.47595 23.3637 2.69665 24.0105C3.20243 24.2785 4.37624 24.6223 5.06746 24.7046L5.56074 24.7635L5.53815 22.1897L5.51547 19.6159L5.002 19.4125C4.33088 19.1467 3.93217 18.7327 3.93259 18.3023C3.93311 17.8054 4.18548 17.4932 4.84402 17.1749C5.38736 16.9122 5.48381 16.8934 6.28569 16.8934C7.08757 16.8934 7.18402 16.9122 7.72736 17.1749C9.02398 17.8017 8.94875 18.8661 7.56938 19.4125L7.0559 19.6159L7.03331 22.2163L7.01072 24.8166L8.74798 24.8775C9.70348 24.911 11.2522 24.9246 12.1896 24.9077L13.894 24.8772L14.3492 27.5664C14.8891 30.7554 16.4197 39.5027 16.4852 39.7732C16.53 39.9581 16.5574 39.9623 17.7247 39.9623H18.9183L18.6921 39.6052C17.6537 37.9666 16.9969 35.8826 16.8843 33.8694C16.535 27.6257 21.196 22.1032 27.5636 21.2161C28.0312 21.151 28.8255 21.1288 29.727 21.1557L31.1517 21.1981L31.0239 21.0206C30.7518 20.6427 30.3404 19.8984 30.1594 19.4566C29.9785 19.0152 29.9372 18.977 29.2444 18.6114C28.1224 18.0192 27.417 17.4934 26.4397 16.5208C24.5411 14.6315 23.1951 12.3404 22.1164 9.16167C21.8654 8.42212 21.5253 7.21195 21.3605 6.47239C20.9089 4.44501 20.9029 4.21163 21.3344 5.46391C22.8394 9.83139 24.6974 12.9999 27.1276 15.3428C28.0937 16.2744 28.9079 16.8759 29.9056 17.3952L30.5047 17.707L30.8189 17.3492C31.4386 16.6433 31.9951 15.2439 32.2866 13.6578C32.7773 10.9896 32.918 7.05807 32.5679 5.80007C31.8161 3.09794 29.4745 1.73447 24.7709 1.26007C24.1119 1.19359 23.2647 1.13829 22.8881 1.1372C22.5116 1.13611 21.6258 1.06139 20.9198 0.971136C18.4457 0.654893 16.3865 0.564382 14.9292 0.707754ZM11.3118 9.60288C12.1453 10.4674 11.7891 12.9015 10.8289 12.9015C9.86257 12.9015 9.47104 10.5669 10.2847 9.65684C10.6146 9.28782 10.989 9.26815 11.3118 9.60288ZM16.8732 9.93904C17.5308 10.6251 17.5145 12.338 16.8435 13.0393C16.4148 13.4874 15.7854 13.1372 15.5358 12.3117C15.1789 11.1318 15.6429 9.70793 16.3841 9.70793C16.5652 9.70793 16.7232 9.78265 16.8732 9.93904ZM28.6647 22.8678C27.704 22.9747 26.989 23.1158 26.2685 23.341C22.5172 24.513 19.7171 27.6532 19.0416 31.4456C18.8718 32.3987 18.8716 34.1008 19.0411 35.0557C20.1448 41.2703 26.7217 45.1097 32.8357 43.1084C35.8134 42.1336 38.3629 39.7184 39.3969 36.8928C39.8997 35.5188 40.0004 34.9088 40 33.2391C39.9997 31.8882 39.9733 31.5804 39.7983 30.8907C38.7656 26.8213 35.5664 23.8093 31.4461 23.0272C30.8098 22.9064 29.1649 22.8121 28.6647 22.8678ZM34.1351 27.1504C35.3506 27.3658 35.5967 27.5292 35.5967 28.1209C35.5967 28.4469 35.8448 28.0773 30.0987 36.3105C29.0326 37.838 28.0843 39.1554 27.9913 39.238C27.8983 39.3207 27.673 39.4079 27.4905 39.432C27.218 39.4678 27.1104 39.4358 26.8886 39.2524C26.6303 39.0391 23.791 35.0767 23.499 34.5223C23.4219 34.3758 23.3588 34.1735 23.3588 34.0728C23.3588 33.9069 23.3932 33.8935 23.7225 33.9302C23.9225 33.9525 24.9454 34.2842 25.9956 34.6672C27.1103 35.0737 27.9365 35.3325 27.981 35.2888C28.0229 35.2477 28.8495 33.5701 29.8179 31.5607C30.7905 29.5427 31.6831 27.7995 31.8119 27.6664C32.1608 27.3057 32.7277 27.0436 33.1938 27.0274C33.3078 27.0235 33.7314 27.0788 34.1351 27.1504Z" fill="#B8B8B8"/>
</svg>
