<svg width="44" height="44" viewBox="0 0 44 44" fill="none" xmlns="http://www.w3.org/2000/svg">
<path fill-rule="evenodd" clip-rule="evenodd" d="M10.1454 0.659142C7.33975 1.00864 5.18766 2.01058 3.30717 3.84272C2.01107 5.10548 1.14553 6.47801 0.559257 8.20021C-0.024441 9.91493 0.00014848 9.0843 0.00014848 27.1027C0.00014848 42.7502 0.0060809 43.3699 0.157401 43.5037C0.295394 43.6258 0.591929 43.6426 2.58625 43.6416C3.86722 43.6408 4.91408 43.6055 4.98682 43.5605C5.10048 43.4903 5.12111 41.5286 5.16101 27.0241C5.20382 11.4692 5.21483 10.5395 5.36168 10.0629C5.88511 8.36362 7.02379 7.0184 8.55813 6.28704C10.8146 5.2113 13.4268 5.60334 15.2999 7.29881L15.8159 7.76582L16.4412 7.39127C16.7852 7.18533 17.7437 6.64604 18.5712 6.19281C19.3987 5.73959 20.127 5.32394 20.1896 5.26905C20.282 5.18811 20.2238 5.07598 19.8813 4.67419C17.7357 2.15717 14.8074 0.747315 11.5296 0.652838C10.9339 0.63569 10.3109 0.638464 10.1454 0.659142ZM23.3429 6.78305C22.519 6.96032 22.0419 7.17895 19.9235 8.34983C17.4527 9.71539 17.17 9.89762 16.5739 10.5087C15.6253 11.4809 15.0618 12.6339 14.8658 14.0034C14.6874 15.2507 14.9372 16.4304 15.6611 17.7587L16.0224 18.4216L16.4586 18.1778C16.6984 18.0437 19.9117 16.2659 23.5991 14.227C27.2867 12.1882 30.3311 10.4928 30.3646 10.4596C30.4756 10.3493 29.6283 9.08035 29.0604 8.50651C28.171 7.60763 27.1213 7.04017 25.8732 6.78347C25.1388 6.63242 24.0435 6.63225 23.3429 6.78305ZM33.2615 11.8081C33.0423 11.9115 28.9654 14.1521 24.2019 16.7873C14.5495 22.1268 15.073 21.7878 15.1503 22.6491C15.1809 22.9896 15.2921 23.2592 15.6337 23.821C16.121 24.6224 16.3683 24.8402 16.9682 24.9972C17.4772 25.1302 17.8922 25.0294 18.7065 24.5745C19.034 24.3915 22.8421 22.2886 27.1689 19.9013C33.1411 16.6061 35.1115 15.4802 35.3501 15.2265C35.7409 14.8109 35.9078 14.2292 35.7736 13.7504C35.7234 13.5715 35.4982 13.1036 35.2731 12.7106C34.9276 12.1075 34.804 11.9666 34.4802 11.807C34.0005 11.5705 33.7648 11.5706 33.2615 11.8081ZM34.8416 20.4432C34.2432 20.7999 34.0515 21.5252 34.4003 22.1133C34.6329 22.5056 35.6825 23.3761 36.059 23.489C36.9899 23.7684 37.9147 22.8885 37.6605 21.9655C37.5956 21.7297 37.4107 21.492 36.9995 21.116C36.6856 20.829 36.3088 20.5225 36.1622 20.4351C35.808 20.224 35.203 20.2277 34.8416 20.4432ZM29.2753 23.5141C29.0862 23.5807 28.9232 23.6358 28.913 23.6365C28.9029 23.6372 28.7965 23.7789 28.6766 23.9514C28.3164 24.4698 28.3681 24.9343 28.8846 25.8166C29.2183 26.3866 29.388 26.587 29.6668 26.7402C30.5205 27.2092 31.5537 26.6003 31.5537 25.6283C31.5537 25.3427 31.1447 24.478 30.7568 23.9431C30.5852 23.7066 30.0022 23.3875 29.7482 23.3911C29.6773 23.3921 29.4645 23.4474 29.2753 23.5141ZM41.3121 24.6909C41.123 24.7574 40.96 24.8126 40.9498 24.8133C40.9397 24.8139 40.8333 24.9556 40.7134 25.1282C40.4697 25.4788 40.4209 26.0527 40.6045 26.4075C40.781 26.7484 42.0253 27.7453 42.396 27.8429C43.3626 28.0974 44.2351 27.1913 43.9426 26.237C43.7828 25.7153 42.2902 24.5607 41.785 24.5679C41.7141 24.5689 41.5013 24.6242 41.3121 24.6909ZM23.4289 26.6937C23.0811 26.851 22.7973 27.166 22.6978 27.5052C22.5838 27.8938 22.8376 29.3647 23.0799 29.7196C23.4027 30.1923 24.1502 30.418 24.6168 30.1838C24.9686 30.007 25.28 29.6563 25.3677 29.3379C25.4674 28.9757 25.2713 27.6469 25.0587 27.245C24.781 26.72 23.9743 26.4471 23.4289 26.6937ZM35.4244 27.9037C34.8401 28.1907 34.5433 29.0147 34.8334 29.5445C35.1174 30.0633 35.8702 30.9395 36.1391 31.0642C36.7921 31.3673 37.4849 31.1444 37.8086 30.5272C38.1405 29.8944 38.068 29.6137 37.3142 28.6158C36.7006 27.8035 36.0938 27.5748 35.4244 27.9037ZM29.4938 31.1707C28.9042 31.6557 28.8418 32.1307 29.2385 33.1128C29.5686 33.93 29.6881 34.1112 30.0323 34.3164C30.6416 34.6796 31.4805 34.4424 31.8244 33.8097C32.0447 33.4045 32.0255 33.1534 31.7133 32.3558C31.2667 31.2142 30.9807 30.9505 30.1889 30.9505C29.8532 30.9505 29.704 30.9978 29.4938 31.1707ZM23.9018 34.2111C23.2237 34.5733 23.0938 35.0912 23.3409 36.447C23.4411 36.9969 23.5099 37.1589 23.7432 37.3943C24.2911 37.9468 25.1064 37.9412 25.6092 37.3813C25.753 37.2212 25.894 36.9664 25.9224 36.8151C25.9995 36.4047 25.7443 34.9057 25.5553 34.658C25.134 34.1064 24.4459 33.9204 23.9018 34.2111Z" fill="#B8B8B8"/>
</svg>
